<svg width="320px" height="64px" viewBox="0 0 320 64" xmlns="http://www.w3.org/2000/svg" xmlns:xlink="http://www.w3.org/1999/xlink" aria-hidden="true" role="img" preserveAspectRatio="xMidYMid meet">
  <!-- First SVG (red flame) -->
  <svg x="0" y="0" width="64" height="64" viewBox="0 0 128 128">
    <path d="M94.9 71.35c-8.08-7.63-21.82-13.99-30.91-18.2c-1.54-.71-2.93-1.35-4.11-1.92c-3.43-1.65-8.12-6.22-6.1-11.47c1.36-3.55 4.81-5.34 10.27-5.34c1.75 0 3.67.2 5.72.58c7.12 1.33 12.52 3.99 15.58 5.5c.38.19.82.21 1.22.07c.39-.15.72-.45.89-.84l7.01-15.81c.31-.69.07-1.51-.57-1.93c-4.94-3.28-17.27-8.15-30.97-8.15c-1.98 0-3.95.1-5.87.3c-10.92 1.12-21.86 4.03-27.92 17.64c-3.78 8.47-3.77 18.01.01 24.89c4.04 7.51 10.66 10.87 19.04 15.11l1.08.55c6.05 3.02 13.3 6.38 18.07 8.59c7.05 3.4 9.66 9.44 8.04 13.08c-2.61 5.87-8.38 7.16-18.36 4.33c-8.81-2.39-16.94-9.14-19.21-11.15c-.34-.3-.79-.44-1.25-.38c-.45.06-.85.32-1.1.69L24.6 104.14c-.41.63-.32 1.46.22 1.98c5.63 5.43 10.22 8.59 18.17 12.5c5.35 2.63 13.18 4.21 20.95 4.21c8.12 0 27.95-1.88 36.65-19.26c5.55-11.12 3.48-22.84-5.69-32.22z" fill="#ff0000"></path>
  </svg>
  
  <!-- Second SVG (letter F) -->
  <svg x="64" y="0" width="64" height="64" viewBox="0 0 23.758 23.758">
    <path d="M4.523,23.758V0h14.712v4.021H9.319v5.625h9.916v4.016H9.319v10.096H4.523z" fill="#ffffff"></path>
  </svg>
  
  <!-- Third SVG (person icon) -->
  <svg x="128" y="0" width="64" height="64" viewBox="0 0 32 32">
    <path style="fill:#ffffff;" d="M10,16c1.105,0,2,0.895,2,2v8c0,1.105-0.895,2-2,2H8v4h16v-4h-1.992c-1.102,0-2-0.895-2-2L20,12H8 v4H10z"></path>
    <circle style="fill:#ffffff;" cx="16" cy="4" r="4"></circle>
  </svg>
  
  <!-- Fourth SVG (letter L) -->
  <svg x="192" y="0" width="64" height="64" viewBox="0 0 32 32">
    <path d="M25.232 25.465h-12.608v-20.672c-0-0.442-0.358-0.8-0.8-0.8h-0.928c-0.442 0-0.8 0.358-0.8 0.8v22.4c0 0.442 0.358 0.8 0.8 0.801h14.336c0.442-0.001 0.8-0.359 0.801-0.801v-0.928c-0.001-0.442-0.359-0.8-0.801-0.801h-0z" fill="#ffffff"></path>
  </svg>
  
  <!-- Fifth SVG (X icon) -->
  <svg x="256" y="0" width="64" height="64" viewBox="0 0 460.775 460.775">
    <path d="M285.08,230.397L456.218,59.27c6.076-6.077,6.076-15.911,0-21.986L423.511,4.565c-2.913-2.911-6.866-4.55-10.992-4.55 c-4.127,0-8.08,1.639-10.993,4.55l-171.138,171.14L59.25,4.565c-2.913-2.911-6.866-4.55-10.993-4.55 c-4.126,0-8.08,1.639-10.992,4.55L4.558,37.284c-6.077,6.075-6.077,15.909,0,21.986l171.138,171.128L4.575,401.505 c-6.074,6.077-6.074,15.911,0,21.986l32.709,32.719c2.911,2.911,6.865,4.55,10.992,4.55c4.127,0,8.08-1.639,10.994-4.55 l171.117-171.12l171.118,171.12c2.913,2.911,6.866,4.55,10.993,4.55c4.128,0,8.081-1.639,10.992-4.55l32.709-32.719 c6.074-6.075,6.074-15.909,0-21.986L285.08,230.397z" fill="#ffffff"></path>
  </svg>
</svg>
